<svg xmlns="http://www.w3.org/2000/svg" width="579" height="183" fill="none"><path fill="#F9D8D3" stroke="#F9D8D3" stroke-width="2" d="m337.5 88.5-7.6 1 1-.1c-2.5.4-5.1.8-7.7 1h.9l-14.2 2.3c-3.8.7-7.5 1.3-12.9 2.6l-15 4.2c-8 2.1-15 4.6-22.3 7.4l.8-.3-11.2 4.8c-4.6 2-10.1 4.5-16.8 8l-5.2 3a197.2 197.2 0 0 0-34.5 24l-6.6 5.9a130.6 130.6 0 0 0-14.7 15.4 35.3 35.3 0 0 0-3.2 5l-.7 1.4c0 .3-.2.5-.3.8l-.2 1.2c-.1.7 0 1.5.1 2.2.2.8.6 1.4 1.1 2 .8.8 1.9 1.3 3 1.5l.7.1.6.1h1.2l4-.3c2.4-.3 4.4-.8 6-1.1l-.9.2c7.2-1.9 14.2-4.4 21-7.4a252.3 252.3 0 0 0 79.2-55.2 223.5 223.5 0 0 0 22.8-29c1.3-2 2.4-4 3.5-6.2 1-2 1.9-4.3 2.5-6.5.3-1.2.4-2.4.4-3.7 0-1.4-.3-2.8-1-4-.9-1.4-2-2.4-3.5-3-1.2-.4-2.5-.7-3.8-.8-2.4 0-4.8.1-7 .6-2.3.4-4.3 1-6.3 1.5a242.8 242.8 0 0 0-25.5 8.8c-5.3 2.2-8.4 3.4-19.2 7.4l-13 4.9-18.3 7.8-26.4 11.3a1233 1233 0 0 0-31.5 14.2 208.4 208.4 0 0 1-27.4 11.5c-1.6.5-5.2 1.8-9.5 2.9-2 .6-4.3 1-6.5 1.1-1.7.3-3.5-.1-5-1.1a6.5 6.5 0 0 1-1.9-3c-.4-1.3-.6-2.6-.6-4-.2-3 0-6.1.7-9 0-.5.2-1.1.4-1.9l.7-2.6 2-5.9a74.3 74.3 0 0 1 16-25.7c7.2-7.7 16-13 24.9-14.9a52.7 52.7 0 0 1 34.1 5c2.5 1.3 4.7 3 6.5 5.2.6.8 1 1.8 1.2 2.8 0 1-.2 2-.7 2.7-1.6 2-3.5 3.8-5.7 5.1a79.7 79.7 0 0 1-13.2 6.5c-4.6 1.8-9.4 3.5-14.3 5l-11.4 3.2a390.6 390.6 0 0 1-72.4 16.1l-8.3 1.7-14.8 3.7c12-1.8 16.8-2.2 30.6-4.5a668 668 0 0 0 43.7-8.6l11.6-2.7 9-2c8.3-2.3 16.8-4.8 24.4-7.7 5.3-1.9 10.5-4.3 15.5-7 2.5-1.5 4.8-3.3 6.9-5.5a10 10 0 0 0 2.2-4.1c.4-1.6.2-3.3-.6-4.8a13 13 0 0 0-2.6-3.6 37.6 37.6 0 0 0-10.4-6.4 57.1 57.1 0 0 0-22.8-4.1c-1.3 0-2.9 0-5 .2a43 43 0 0 0-19 6 59.2 59.2 0 0 0-7.6 5.2A83 83 0 0 0 110.4 98a74.3 74.3 0 0 0-7.5 18.2c-1 3.9-1.6 7.8-1.6 11.8 0 2.2.4 4.5 1.1 6.6.4 1.2 1 2.3 1.8 3.3a8 8 0 0 0 3.1 2.4c2.4 1 5 1.2 7.6.8a43 43 0 0 0 6.6-1.4c4.2-1.1 8-2.6 11.5-4 7-2.7 13-5.3 18-7.3 0 .1-2 1.2.4.2l27.1-11.6c11.8-5.4 24.6-11 33.1-14.7 7-3.2 15-6.5 24.4-10.2l16.2-6.5 17.4-6.7c6.4-2.3 13.5-5 21.3-7.2a73 73 0 0 1 8.6-2c2.9-.4 5.6-.4 6.9.2a6 6 0 0 0-.5-.2 2.6 2.6 0 0 1 2 2c.2 1.3.1 2.6-.2 4-1 3-2.2 6.1-4 9-.8 1.3-2.8 4.6-4.5 7a175 175 0 0 1-13.8 17.2c-5 5.6-10.5 11-16.3 16.4l-3.4 3a202.1 202.1 0 0 1-32 24.3 258.7 258.7 0 0 1-39.9 20.3l3.1-1.2-1.4.6-.9.3a118.6 118.6 0 0 1-17.6 5.2 22.9 22.9 0 0 1-4.4.2 2.6 2.6 0 0 1-.8-.3 1.1 1.1 0 0 1-.7-1c0-.3 0-.6.2-.8l.5-1.3c1-1.7 2-3.3 3.2-4.8 4.3-5.5 9.1-10.5 14.4-15.2l8.2-7.5a128 128 0 0 1 9.6-7.6l5.4-3.5c2.4-1.6 5.8-3.8 11.6-7.3a129 129 0 0 1 9.8-5.4l6-3a266 266 0 0 1 80.5-25.2c6.7-1.1 13.1-1.8 16-2 5.5-.4 16.6-1.4 27-1.4 5.8-.1 11.6.2 17.5.8 3.4.4 6.8 1.1 10.2 2 1.6.5 3.1 1.2 4.5 2.2.2 0 .3.2.4.4v.4c-.1.6-.4 1.2-.9 1.7a26.8 26.8 0 0 1-5 4.6 103.4 103.4 0 0 1-33 15.3c-4.5 1.3-9.3 2-14.1 2-2.8 0-5.6-.5-8.3-1.4a12.9 12.9 0 0 1-6.3-4.8c-2.3-3.5-3-8-3-12.2a75 75 0 0 1 1.2-11.1c.6-3.2 1.2-6.7 3-13.7 1-3.9 2-7.5 3.3-11.4l1.9-6 4.7-13.1 2.3-6.7c1.5-4.8 3.3-10.2 5-16.3 1-3.3 1.8-6.6 2.4-10 .3-2 .5-3.9.4-5.9a11 11 0 0 0-.7-3.4 6.3 6.3 0 0 0-3.9-3.8l-1.1-.2h-2.2a12.5 12.5 0 0 0-3.7.8c-2.1.8-4.2 1.8-6.1 3a98.9 98.9 0 0 0-10.7 7.6A230.6 230.6 0 0 0 303.4 29 582.9 582.9 0 0 0 267 68.5l-11.6 14.3c-3.9 5.2-7.7 10.6-11.6 16.2a255 255 0 0 0-11.6 18.5 59.1 59.1 0 0 0-6.7 15.7 19 19 0 0 0-.5 5.6l.3 1.8c.2.6.4 1.3.8 1.8.3.7.8 1.2 1.3 1.7l1.8 1.2c2 .8 4.2 1 6.4.7l4.2-.8a162 162 0 0 0 30.2-14l4.6-2.3c1.6-1 2.3-1.3 4-2.2a348 348 0 0 0 24-14.4l7.8-5c10-6.4 18.2-11.6 26.8-17.3l26-16.9 4-2.7c3-2.2 6.4-4.4 10-6.6l7-4.4c8-5 16.6-10.6 25.3-15.5l6.5-3.4 3.3-1.5 1.6-.7.4-.1.3-.1h.2c.3-.2.5-.2.7 0 .3 0 .1.4 0 .6l-.1.3-.3.5-.5.7-1.9 2.6c-2.6 3.7-5.7 7.2-9 10.7-3.1 3.6-6.5 7-9.9 10.5A1425 1425 0 0 1 368 96.3l-5.6 5.1c-11 10-24.3 22.3-39.2 36.4l-9 8.9a113 113 0 0 0-6 6.5l-.4.6-.2.5-.1.4-.1.8v.5c0 .4.1.7.3 1 .3.5.8 1 1.4 1.2l.4.2h1.3a4.7 4.7 0 0 0 1.8-.8l1.2-.7 1.5-1.1 2.8-2.3c5.4-4 7.9-6 10.4-8 2.6-2 5-4.1 10-8.2l25-20.6 31-24.5c12.3-9.7 24-18.7 35.7-26.8a173.6 173.6 0 0 1 11.2-7l1.1-.7 1-.5c.4-.2.7-.3 1.1-.3.3 0 .3.3.3.5l-.3.5-.1.3-.4.6-1.4 2.1c-1.9 2.9-4 5.7-6.2 8.5A925.3 925.3 0 0 1 418 91.9l-12.3 14.4-22.5 26.7c-5.3 6.4-9.6 11.7-11.4 13.6a128 128 0 0 0-4.9 6.4l-1.1 1.6-.6.8-.9 1.4a20.2 20.2 0 0 0-2.8 5.9 5.4 5.4 0 0 0 .4 3.2l.7 1 1 .6.9.3 2.2-.1c2.1-.6 4.1-1.6 6-2.8l1.2-.7.8-.6 1.6-1 3-2.2c9.2-7 18.9-15.1 33.8-27.4l-.6.5c8.3-7.1 17.8-14.8 30.7-25.4l-11.7 10 21-16.7 12.2-10.2A399.7 399.7 0 0 1 496 68.3c2.2-1.4 4.5-2.7 7-4h.3l-.2.3-1.2 2c-1.6 2.7-4 6-7.3 10.6l-3 4A1020 1020 0 0 1 479 96.5l-5.6 6.9c-7.5 9.4-17.7 22.2-24.7 32.5-1.6 2.3-3.6 5.3-5.6 8.6-2.1 3.4-4 6.9-5.5 10.5a26 26 0 0 0-2 6.8c-.2 1.4 0 2.8.3 4.2.5 1.6 1.5 3 2.9 3.8 1.2.8 2.5 1.3 3.8 1.5a40.4 40.4 0 0 0 12.7-.7c3.4-.6 7.4-1.8 11.8-3.1l9.8-3.2a213 213 0 0 0 43.5-21.5 114.4 114.4 0 0 0 22-17.8c2.3-2.4 4.3-5 6-8 1-2 1.6-4.2 2-6.5a13 13 0 0 0-2.4-9.1 25 25 0 0 0-7.8-6.8 60.4 60.4 0 0 0-9.7-4.5c-8.2-3-16.5-5.2-25-6.7-11-2.2-22.1-3.7-33.3-4.7-11.7-1-23.8-1.7-35.5-2.4a985.3 985.3 0 0 0-71.4-2.4 2968.6 2968.6 0 0 0-74.6.7 2268.9 2268.9 0 0 0-57.6 2.2c-3.8.2-5.5.4-15 .8L188 78.8c-14.7 1-29.2 2.2-47 3.3l-44 3.6a561.4 561.4 0 0 0-35.2 3.8 609.6 609.6 0 0 0-37.4 5.3c-5 .8-9.9 1.8-14.7 3.2l-1.2.3-1.5.6c-.9.3-1.7.7-2.6 1.2l-1.7 1.5c-.5.5-.8 1.2-.8 1.9l.3 1.2.8 1c.6.6 1.4 1.1 2.2 1.5l1.5.5 1.5.5 2.4.6a322.8 322.8 0 0 0 29.1 4.4c10 1 17.7 1.4 27.2 2.1 12.4 1 14.9.8 26.9 1.6 7.4.7 16.8 1.4 29.9 2.2 15.5 1 26.6 1.4 40 2 4 .3 7 .6 11.4.8a2203 2203 0 0 0 75.4 3.2l48.4 2.2 27.5.8c15.7.6 28.4 1.3 44.8 1.7l8.2.3c19.5.9 37.7 1.4 51.5 1.5 7 0 15.2.2 24.4.4l22.2.9 13.4.6 8.4.4c10.6.4 21 .6 31.3.8l15.6.4 17.5.6 9.3-.3c-6.7-.4 1.9-.3 5.6-.5-6.6-.3-14-.7-23.5-1l-6.7-.2-19.8-.2-20.5-.8c-9.7-.2-16-.5-24-.8l-44.7-1.7c-2.5 0-4.7-.2-7.1-.4h6.5l-9.8-.6c-11-.6-22-1.2-37.2-1.7-24.3-.9-48.9-1.8-73.5-2.5l-23.8-.8c-18.9-1-18.9-1-34.8-1.4-12.8-1.2-14-1.3-41.8-2.8l-26.7-1c-10-.2-23.6-1-33.4-1.3l-19.5-.6c-5-.2-10-.3-18.7-.8-3.9-.2-7.8-.6-11.7-1.2l-5.3-.6a1154 1154 0 0 1-54.9-4.6 411.1 411.1 0 0 1-33.2-4.1l-2.7-.6-1.4-.3-.7-.2-1.1-.5c-.4-.1-.9-.3-1-.8 0-.4.7-.6 1-.8l1.2-.5 1-.3 1.3-.3c1.8-.5 3.6-1 5.5-1.3a321 321 0 0 1 10.2-2c9.5-1.7 14.4-2 22.8-3.3l1.2-.3.7-.3L81.8 91l20.6-2.4 2.7-.3 24.3-2 26.9-2 34.8-1.5 6.6-.2c18.8-1.2 31.6-1.4 45.2-1.9l5-.2c8.4-.6 24.4-1.3 35.6-1.8l9.2-.3c18.1-.4 36.3-.6 53.6-.6l18.4-.2c16.5.2 30.6.7 47.1 1 4.2 0-1.1-.4 10.6 0a985.5 985.5 0 0 1 76.9 7.5c6.5 1.2 12.7 2.5 18.9 4.2a93 93 0 0 1 17.6 6.4c3 1.5 5.8 3.5 8 6 1 1 1.7 2.3 2 3.6.5 1.2.6 2.5.4 3.7-.5 2.6-1.5 5-3 7.2-1.4 2.3-3 4.3-4.9 6.2-3 3.1-6.4 6-9.9 8.6a230.3 230.3 0 0 1-36 21.4c-10.5 5-21.6 9-33 12a67.8 67.8 0 0 1-13.6 1.6c-1.3 0-2.6-.3-3.8-.9a2.3 2.3 0 0 1-1.2-1.4l-.1-.7c-.1-1.4 0-2.7.5-4 1-3 2.3-5.9 4-8.6 3-5.3 6.3-10.3 10-15.2 5.2-7.2 4.7-6 9-11.6 3.5-4.8 7.3-9.4 10.6-13.3l11.9-15.2a561.8 561.8 0 0 0 19-25.2l1.4-2.2.7-1.2.3-.6.5-1c.6-1.1 1-2.4 1.2-3.8v-.8c0-.3 0-.6-.2-.9V60l-.3-.4-.5-.7c-.5-.5-1.2-.8-2-.9-.8-.1-1.6 0-2.4.1a75.2 75.2 0 0 0-10.9 5.7 751.3 751.3 0 0 0-30.3 22.9c-2.4 2-4.8 3.7-8.2 6.3-7.7 6.1-16.4 13.1-26 21.1-11 9.1-18 14.6-28.4 23-7.7 6.2-4 2.9-10 7.6l-5.2 4c-4.3 3.4-9 7-14.4 10.7l-.4.2h-.2l-.3.2a2.6 2.6 0 0 1-.6.2h-.1v-.3l.2-.5.6-.7 2-3 4.3-5.7a705.7 705.7 0 0 1 36.7-43.2l10.2-12 5-5.8-.6.7 6-7.1 8-10.2a125.5 125.5 0 0 0 8.9-13.3l1-2.7a4.9 4.9 0 0 0-.6-4.3 4.4 4.4 0 0 0-3.8-1.7c-2 .1-3.8.7-5.5 1.6l-.7.4-.5.2-.7.4-1.5.8-2.9 1.7a518.5 518.5 0 0 0-41.8 31L364.6 110l-10.3 8.2-23.2 19.2 4.2-3a1555 1555 0 0 1-13.3 10.7l-6.5 5-3 2.3-1.5 1-.7.4-.2.1v.2a2.8 2.8 0 0 1 .2 1v.3c0 .2-.2 0 .3 0l.2.2h.3l.7.3.1-.2.6-.6 1.3-1.5a121.5 121.5 0 0 1 7.6-7.4l8.9-8.3a15931.4 15931.4 0 0 1 43.3-40.4l6.3-5.9A1528.6 1528.6 0 0 0 419 52a86.7 86.7 0 0 0 7.4-9.5l.5-1 .8-1.5c1-2.1 1.2-4 .2-5.6a5.3 5.3 0 0 1 0 4.7 13 13 0 0 1-1.2 2.4l-.3.6a39.4 39.4 0 0 1-4 5.2c.8-1 1.6-2 2.3-3.2l1.2-1.6.5-.9.3-.5.3-.7c1-1.6 1.3-3.4 1-5.2-.3-.8-.8-1.4-1.6-1.8-.7-.4-1.5-.5-2.4-.5-.9 0-1.8.1-2.6.4l-1.3.4-.9.3a54.1 54.1 0 0 0-9 4c-2.4 1.3-4.4 2.3-8.7 4.8-8.7 5.4-12.7 7.6-18.8 11.6C375.3 59 376 59 367 64.8c-9.4 5.6-9.4 5.6-30.4 19.3L321 94.3a1720 1720 0 0 1-44.2 27.7 317.8 317.8 0 0 1-28 15 64.5 64.5 0 0 1-13.7 4.4c-1.5.2-3 0-4.3-.5-.3-.1-.5-.4-.7-.7l-.1-.1v-.3c-.2-.2-.2-.4-.2-.6l-.1-1.5c0-.5 0-1.1.2-1.7a34 34 0 0 1 2.2-7.4 184 184 0 0 1 16.3-27.7 529 529 0 0 1 7.7-10.3l4.9-6.7a367.2 367.2 0 0 1 22.3-27.1l3.5-4a402.3 402.3 0 0 1 29.2-30c4.8-4.3 9.9-8.3 15.2-12 2-1.3 4-2.5 6-3.5l1.6-.7c.5-.3 1-.4 1.6-.6.9-.3 1.8-.4 2.8-.4l.4.1.3.1.3.2.3.3c.4.7.6 1.6.6 2.4.1 2.3 0 4.7-.6 7-1.2 5.6-2.8 11.1-4.8 16.5l-3 9c-2.6 7.4-5.2 14.7-7.2 20.8-2 6-3.6 10.9-4.5 13.2a160 160 0 0 0-3.2 12.8c-1 4.4-1.6 9-1.8 13.4-.1 3.7.3 7.3 1.3 10.8 1 3.3 2.7 6.2 5.2 8.6 2.5 2.3 5.5 3.9 8.8 4.6 2.9.7 5.8 1 8.7.8 2.4 0 4.8-.3 7.2-.7a110.3 110.3 0 0 0 32.4-11.7l4.7-2.6c1.7-1 3.4-2.1 5-3.3 1.9-1.3 3.6-2.9 5.2-4.6 1-1.1 1.9-2.4 2.5-3.8a6 6 0 0 0 .2-3.4l-.6-1.6-.5-.7-.6-.6a13 13 0 0 0-4.4-2.6 71.8 71.8 0 0 0-14.7-3 262.5 262.5 0 0 0-43.6 1l.7-.1zm-91.8 15.4zm-39 19.4.7.1-2.8-.1h-.7 2.7zm90.7-13.7-.6.3 2.2-1.3.4-.3-2 1.3z"/><path fill="#F9D8D3" stroke="#F9D8D3" stroke-width="2" d="m183 180.7-1.4.4 2.2-.6-.9.2zm141.1-90.5-3.1.4 1.4-.2h.8l1-.2zm6.7-.9c2-.4 4-.6 6-.8h.6l-7.6.9 1-.1z"/><path fill="#F9D8D3" stroke="#F9D8D3" stroke-width="2" d="m323.2 90.3 7.6-1h-1v.2l1-.1-7.7 1h1v-.2l-.9.1zm-62.7 16.3-2.7 1 2-.7.7-.3zm167.3-17.1-1.6 2 .6-.8 1.5-1.8-.5.6zm-15.4 44 2.4-2-1.7 1.4-.7.6z"/></svg>